<svg width="17" height="16" viewBox="0 0 17 16" fill="none" xmlns="http://www.w3.org/2000/svg">
<path d="M8.32715 3.5C8.32715 3.22386 8.10329 3 7.82715 3C7.55101 3 7.32715 3.22386 7.32715 3.5V9C7.32715 9.17943 7.42329 9.3451 7.57908 9.43412L11.0791 11.4341C11.3188 11.5711 11.6243 11.4878 11.7613 11.2481C11.8983 11.0083 11.815 10.7029 11.5752 10.5659L8.32715 8.70984V3.5Z" fill="#E0E0E0"/>
<path d="M8.32715 16C12.7454 16 16.3271 12.4183 16.3271 8C16.3271 3.58172 12.7454 0 8.32715 0C3.90887 0 0.327148 3.58172 0.327148 8C0.327148 12.4183 3.90887 16 8.32715 16ZM15.3271 8C15.3271 11.866 12.1931 15 8.32715 15C4.46115 15 1.32715 11.866 1.32715 8C1.32715 4.13401 4.46115 1 8.32715 1C12.1931 1 15.3271 4.13401 15.3271 8Z" fill="#E0E0E0"/>
</svg>
