<svg width="18" height="18" viewBox="0 0 18 18" fill="none" xmlns="http://www.w3.org/2000/svg">
<path d="M13.2099 11.6369C14.0995 10.4257 14.625 8.93047 14.625 7.3125C14.625 3.27392 11.3511 0 7.3125 0C3.27392 0 0 3.27392 0 7.3125C0 11.3511 3.27392 14.625 7.3125 14.625C8.93091 14.625 10.4265 14.0992 11.6378 13.2092L11.6369 13.2099C11.6701 13.2549 11.707 13.298 11.7477 13.3387L16.0795 17.6705C16.5188 18.1098 17.2312 18.1098 17.6705 17.6705C18.1098 17.2312 18.1098 16.5188 17.6705 16.0795L13.3387 11.7477C13.298 11.707 13.2549 11.6701 13.2099 11.6369ZM13.5 7.3125C13.5 10.7298 10.7298 13.5 7.3125 13.5C3.89524 13.5 1.125 10.7298 1.125 7.3125C1.125 3.89524 3.89524 1.125 7.3125 1.125C10.7298 1.125 13.5 3.89524 13.5 7.3125Z" fill="white"/>
</svg>
