<svg width="32" height="32" viewBox="0 0 32 32" fill="none" xmlns="http://www.w3.org/2000/svg">
<path d="M0 2.29228C0 1.02663 1.05202 0 2.34983 0H29.6502C30.9479 0 32 1.02663 32 2.29228V29.7077C32 30.9738 30.9479 32 29.6502 32L2.34983 32C1.05202 32 0 30.9738 0 29.7077V2.29228ZM9.88676 26.7873V12.3375H5.08392V26.7873H9.88676ZM7.48531 10.3646C9.16016 10.3646 10.2026 9.25506 10.2026 7.86841C10.1714 6.45054 9.16017 5.37174 7.51709 5.37174C5.87418 5.37174 4.8 6.45054 4.8 7.86841C4.8 9.25506 5.84223 10.3646 7.45401 10.3646H7.48531ZM17.3028 26.7873V18.7179C17.3028 18.2861 17.334 17.8546 17.4608 17.5459C17.808 16.6831 18.5983 15.7894 19.9251 15.7894C21.663 15.7894 22.3582 17.1145 22.3582 19.057V26.7873H27.1606V18.502C27.1606 14.0637 24.7912 11.9984 21.6313 11.9984C19.0835 11.9984 17.9412 13.3987 17.3029 14.3833V14.4331H17.2709C17.2814 14.4166 17.2921 14.4001 17.3029 14.3833V12.3375H12.5001C12.5632 13.6934 12.5001 26.7873 12.5001 26.7873H17.3028Z" fill="#D9D9D9"/>
</svg>
